<svg width="1270" height="613" viewBox="0 0 1270 613" fill="none" xmlns="http://www.w3.org/2000/svg">
<path d="M984.584 18.0368C866.322 -4.77271 725.31 -5.34889 584.029 16.4003C442.748 38.1494 309.333 80.9716 205.055 138.039C100.778 195.107 31.6412 263.135 8.66855 331.276C-14.3039 399.418 10.2102 463.75 78.3026 514.015C146.395 564.281 254.145 597.586 384.374 608.621C514.602 619.655 659.811 607.784 796.849 574.899C933.887 542.015 1054.86 490.011 1140.49 427.178C1226.12 364.346 1271.47 294.302 1269.3 228.215L1010.1 260.224C1011.38 299.312 984.559 340.741 933.913 377.905C883.267 415.069 811.713 445.828 730.659 465.278C649.605 484.728 563.718 491.75 486.691 485.223C409.665 478.696 345.934 458.997 305.659 429.267C265.384 399.536 250.885 361.485 264.472 321.182C278.06 280.878 318.952 240.641 380.629 206.887C442.307 173.133 521.218 147.805 604.782 134.941C688.345 122.077 771.75 122.418 841.699 135.909L984.584 18.0368Z" fill="#E8F5FF"/>
</svg>
